<mxfile host="app.diagrams.net" modified="2023-10-08T03:31:28.549Z" agent="Mozilla/5.0 (Windows NT 10.0; Win64; x64) AppleWebKit/537.36 (KHTML, like Gecko) Chrome/117.0.0.0 Safari/537.36" etag="abK3SOcpFJQ9FAKbMzrj" version="22.0.4" type="github">
  <diagram name="第 1 页" id="CtQ_s-pGWc7jnwbh1haV">
    <mxGraphModel dx="698" dy="466" grid="1" gridSize="10" guides="1" tooltips="1" connect="1" arrows="1" fold="1" page="1" pageScale="1" pageWidth="827" pageHeight="1169" math="0" shadow="0">
      <root>
        <mxCell id="0" />
        <mxCell id="1" parent="0" />
        <mxCell id="-B8KI2uHbG9VGSkMeqf5-10" style="edgeStyle=orthogonalEdgeStyle;rounded=0;orthogonalLoop=1;jettySize=auto;html=1;entryX=0.5;entryY=0;entryDx=0;entryDy=0;" edge="1" parent="1" source="-B8KI2uHbG9VGSkMeqf5-2" target="-B8KI2uHbG9VGSkMeqf5-7">
          <mxGeometry relative="1" as="geometry" />
        </mxCell>
        <mxCell id="-B8KI2uHbG9VGSkMeqf5-2" value="&lt;font style=&quot;font-size: 24px;&quot;&gt;INPUT&lt;/font&gt;" style="whiteSpace=wrap;html=1;" vertex="1" parent="1">
          <mxGeometry x="360" y="140" width="120" height="60" as="geometry" />
        </mxCell>
        <mxCell id="-B8KI2uHbG9VGSkMeqf5-8" style="edgeStyle=orthogonalEdgeStyle;rounded=0;orthogonalLoop=1;jettySize=auto;html=1;entryX=0.5;entryY=0;entryDx=0;entryDy=0;" edge="1" parent="1" source="-B8KI2uHbG9VGSkMeqf5-3" target="-B8KI2uHbG9VGSkMeqf5-7">
          <mxGeometry relative="1" as="geometry" />
        </mxCell>
        <mxCell id="-B8KI2uHbG9VGSkMeqf5-3" value="&lt;font style=&quot;font-size: 24px;&quot;&gt;Instruction&lt;/font&gt;" style="whiteSpace=wrap;html=1;" vertex="1" parent="1">
          <mxGeometry x="200" y="140" width="120" height="60" as="geometry" />
        </mxCell>
        <mxCell id="-B8KI2uHbG9VGSkMeqf5-13" style="edgeStyle=orthogonalEdgeStyle;rounded=0;orthogonalLoop=1;jettySize=auto;html=1;exitX=0.5;exitY=1;exitDx=0;exitDy=0;" edge="1" parent="1" source="-B8KI2uHbG9VGSkMeqf5-7">
          <mxGeometry relative="1" as="geometry">
            <mxPoint x="340.2857142857142" y="360" as="targetPoint" />
          </mxGeometry>
        </mxCell>
        <mxCell id="-B8KI2uHbG9VGSkMeqf5-7" value="&lt;font style=&quot;font-size: 24px;&quot;&gt;LMM&lt;/font&gt;" style="whiteSpace=wrap;html=1;" vertex="1" parent="1">
          <mxGeometry x="280" y="270" width="120" height="60" as="geometry" />
        </mxCell>
        <mxCell id="-B8KI2uHbG9VGSkMeqf5-11" value="&lt;div&gt;Translate English into Simplified&lt;/div&gt;&lt;div&gt;Chinese&lt;/div&gt;" style="text;html=1;align=center;verticalAlign=middle;resizable=0;points=[];autosize=1;strokeColor=none;fillColor=none;" vertex="1" parent="1">
          <mxGeometry x="165" y="100" width="190" height="40" as="geometry" />
        </mxCell>
        <mxCell id="-B8KI2uHbG9VGSkMeqf5-12" value="Hello World" style="text;html=1;align=center;verticalAlign=middle;resizable=0;points=[];autosize=1;strokeColor=none;fillColor=none;" vertex="1" parent="1">
          <mxGeometry x="375" y="105" width="90" height="30" as="geometry" />
        </mxCell>
        <mxCell id="-B8KI2uHbG9VGSkMeqf5-14" value="你好，世界" style="text;html=1;align=center;verticalAlign=middle;resizable=0;points=[];autosize=1;strokeColor=none;fillColor=none;" vertex="1" parent="1">
          <mxGeometry x="300" y="358" width="80" height="30" as="geometry" />
        </mxCell>
      </root>
    </mxGraphModel>
  </diagram>
</mxfile>
